# xmcd CD database file
#
# Track frame offsets:
#	150
#	28035
#	63841
#	100039
#	131860
#	157492
#	182319
#	199718
#	233254
#
# Disc length: 3181 seconds
#
# Revision: 1
# Processed by: cddbd v1.5.1PL0 Copyright (c) Steve Scherf et al.
# Submitted via: CDex 1.51
#
DISCID=6e0c6b09
DTITLE=Mariano Díaz - Barbecue Beat
DYEAR=2005
DGENRE=Jazz
TTITLE0=Cuando llora el angelito
TTITLE1=Intro - La pomeña
TTITLE2=Barbecue Beat
TTITLE3=Like Someone In Love
TTITLE4=1000 noches
TTITLE5=The Joker
TTITLE6=Rhythm A Ning
TTITLE7=A Hard Day's Night
TTITLE8=Barbecue Beat (reprise)
EXTD=YEAR: 2005
EXTT0=
EXTT1=
EXTT2=
EXTT3=
EXTT4=
EXTT5=
EXTT6=
EXTT7=
EXTT8=
PLAYORDER=
